<mxfile host="65bd71144e">
    <diagram id="XGcmszwiaOjmCpFfHFo0" name="Page-1">
        <mxGraphModel dx="777" dy="575" grid="0" gridSize="10" guides="1" tooltips="1" connect="1" arrows="1" fold="1" page="0" pageScale="1" pageWidth="850" pageHeight="1100" background="#ffffff" math="0" shadow="0">
            <root>
                <mxCell id="0"/>
                <mxCell id="1" parent="0"/>
                <mxCell id="2" value="" style="shape=cube;whiteSpace=wrap;html=1;boundedLbl=1;backgroundOutline=1;darkOpacity=0.05;darkOpacity2=0.1;direction=south;size=25;" vertex="1" parent="1">
                    <mxGeometry x="55" y="175" width="260" height="270" as="geometry"/>
                </mxCell>
                <mxCell id="53" style="edgeStyle=orthogonalEdgeStyle;rounded=0;orthogonalLoop=1;jettySize=auto;html=1;exitX=0;exitY=0;exitDx=195;exitDy=112.5;exitPerimeter=0;endArrow=none;endFill=0;entryX=1;entryY=0.573;entryDx=0;entryDy=0;entryPerimeter=0;" edge="1" parent="1" source="3" target="20">
                    <mxGeometry relative="1" as="geometry">
                        <mxPoint x="480" y="450" as="targetPoint"/>
                        <Array as="points">
                            <mxPoint x="148" y="480"/>
                            <mxPoint x="480" y="480"/>
                        </Array>
                    </mxGeometry>
                </mxCell>
                <mxCell id="3" value="" style="shape=cube;whiteSpace=wrap;html=1;boundedLbl=1;backgroundOutline=1;darkOpacity=0.05;darkOpacity2=0.1;direction=south;" vertex="1" parent="1">
                    <mxGeometry x="55" y="250" width="205" height="195" as="geometry"/>
                </mxCell>
                <mxCell id="8" value="" style="group" vertex="1" connectable="0" parent="1">
                    <mxGeometry x="65" y="322.5" width="135" height="87.5" as="geometry"/>
                </mxCell>
                <mxCell id="4" value="Vue&amp;nbsp;&lt;br&gt;Components" style="rounded=0;whiteSpace=wrap;html=1;" vertex="1" parent="8">
                    <mxGeometry x="15" width="120" height="87.5" as="geometry"/>
                </mxCell>
                <mxCell id="5" value="" style="rounded=0;whiteSpace=wrap;html=1;" vertex="1" parent="8">
                    <mxGeometry y="20" width="30" height="20" as="geometry"/>
                </mxCell>
                <mxCell id="6" value="" style="rounded=0;whiteSpace=wrap;html=1;" vertex="1" parent="8">
                    <mxGeometry y="51.5" width="30" height="20" as="geometry"/>
                </mxCell>
                <mxCell id="9" value="&amp;lt;&amp;lt;Execution environment&amp;gt;&amp;gt;Web Browser" style="text;html=1;strokeColor=none;fillColor=none;align=center;verticalAlign=middle;whiteSpace=wrap;rounded=0;" vertex="1" parent="1">
                    <mxGeometry x="50" y="282.5" width="200" height="40" as="geometry"/>
                </mxCell>
                <mxCell id="10" value="&amp;lt;&amp;lt;Device&amp;gt;&amp;gt;PC/Web client" style="text;html=1;strokeColor=none;fillColor=none;align=center;verticalAlign=middle;whiteSpace=wrap;rounded=0;" vertex="1" parent="1">
                    <mxGeometry x="15" y="201" width="230" height="40" as="geometry"/>
                </mxCell>
                <mxCell id="11" value="" style="shape=cube;whiteSpace=wrap;html=1;boundedLbl=1;backgroundOutline=1;darkOpacity=0.05;darkOpacity2=0.1;direction=south;size=25;" vertex="1" parent="1">
                    <mxGeometry x="400" y="50" width="280" height="395" as="geometry"/>
                </mxCell>
                <mxCell id="12" value="" style="shape=cube;whiteSpace=wrap;html=1;boundedLbl=1;backgroundOutline=1;darkOpacity=0.05;darkOpacity2=0.1;direction=south;" vertex="1" parent="1">
                    <mxGeometry x="400" y="140" width="230" height="305" as="geometry"/>
                </mxCell>
                <mxCell id="13" value="" style="group" vertex="1" connectable="0" parent="1">
                    <mxGeometry x="416" y="322.5" width="170" height="122.5" as="geometry"/>
                </mxCell>
                <mxCell id="20" value="" style="shape=cube;whiteSpace=wrap;html=1;boundedLbl=1;backgroundOutline=1;darkOpacity=0.05;darkOpacity2=0.1;direction=south;" vertex="1" parent="13">
                    <mxGeometry x="-15" y="-92.5" width="185" height="215" as="geometry"/>
                </mxCell>
                <mxCell id="17" value="java application" style="text;html=1;strokeColor=none;fillColor=none;align=center;verticalAlign=middle;whiteSpace=wrap;rounded=0;" vertex="1" parent="13">
                    <mxGeometry x="-65" y="-72.5" width="200" height="40" as="geometry"/>
                </mxCell>
                <mxCell id="41" value="" style="group" vertex="1" connectable="0" parent="13">
                    <mxGeometry y="-32.5" width="100" height="40" as="geometry"/>
                </mxCell>
                <mxCell id="14" value="controller" style="rounded=0;whiteSpace=wrap;html=1;" vertex="1" parent="41">
                    <mxGeometry x="11.11111111111111" width="88.88888888888889" height="40" as="geometry"/>
                </mxCell>
                <mxCell id="15" value="" style="rounded=0;whiteSpace=wrap;html=1;" vertex="1" parent="41">
                    <mxGeometry y="9.142857142857142" width="22.22222222222222" height="9.142857142857142" as="geometry"/>
                </mxCell>
                <mxCell id="16" value="" style="rounded=0;whiteSpace=wrap;html=1;" vertex="1" parent="41">
                    <mxGeometry y="23.542857142857144" width="22.22222222222222" height="9.142857142857142" as="geometry"/>
                </mxCell>
                <mxCell id="40" value="" style="group" vertex="1" connectable="0" parent="13">
                    <mxGeometry y="17.5" width="100" height="40" as="geometry"/>
                </mxCell>
                <mxCell id="33" value="services" style="rounded=0;whiteSpace=wrap;html=1;" vertex="1" parent="40">
                    <mxGeometry x="11.111111111111112" width="88.8888888888889" height="40" as="geometry"/>
                </mxCell>
                <mxCell id="34" value="" style="rounded=0;whiteSpace=wrap;html=1;" vertex="1" parent="40">
                    <mxGeometry y="9.142857142857142" width="22.222222222222225" height="9.142857142857142" as="geometry"/>
                </mxCell>
                <mxCell id="35" value="" style="rounded=0;whiteSpace=wrap;html=1;" vertex="1" parent="40">
                    <mxGeometry y="23.542857142857144" width="22.222222222222225" height="9.142857142857142" as="geometry"/>
                </mxCell>
                <mxCell id="39" value="" style="group" vertex="1" connectable="0" parent="13">
                    <mxGeometry y="67.5" width="104" height="40" as="geometry"/>
                </mxCell>
                <mxCell id="36" value="routines" style="rounded=0;whiteSpace=wrap;html=1;" vertex="1" parent="39">
                    <mxGeometry x="11.555555555555555" width="92.44444444444444" height="40" as="geometry"/>
                </mxCell>
                <mxCell id="37" value="" style="rounded=0;whiteSpace=wrap;html=1;" vertex="1" parent="39">
                    <mxGeometry y="9.142857142857142" width="23.11111111111111" height="9.142857142857142" as="geometry"/>
                </mxCell>
                <mxCell id="38" value="" style="rounded=0;whiteSpace=wrap;html=1;" vertex="1" parent="39">
                    <mxGeometry y="23.542857142857144" width="23.11111111111111" height="9.142857142857142" as="geometry"/>
                </mxCell>
                <mxCell id="18" value="&amp;lt;&amp;lt;Device&amp;gt;&amp;gt;Aplication Server" style="text;html=1;strokeColor=none;fillColor=none;align=center;verticalAlign=middle;whiteSpace=wrap;rounded=0;" vertex="1" parent="1">
                    <mxGeometry x="365" y="80" width="230" height="40" as="geometry"/>
                </mxCell>
                <mxCell id="19" value="&amp;lt;&amp;lt;Execution Environment&amp;gt;&amp;gt;Java" style="text;html=1;strokeColor=none;fillColor=none;align=center;verticalAlign=middle;whiteSpace=wrap;rounded=0;" vertex="1" parent="1">
                    <mxGeometry x="376" y="161" width="230" height="40" as="geometry"/>
                </mxCell>
                <mxCell id="44" value="" style="shape=cube;whiteSpace=wrap;html=1;boundedLbl=1;backgroundOutline=1;darkOpacity=0.05;darkOpacity2=0.1;direction=south;size=25;" vertex="1" parent="1">
                    <mxGeometry x="820" y="167.5" width="260" height="270" as="geometry"/>
                </mxCell>
                <mxCell id="45" value="" style="shape=cube;whiteSpace=wrap;html=1;boundedLbl=1;backgroundOutline=1;darkOpacity=0.05;darkOpacity2=0.1;direction=south;" vertex="1" parent="1">
                    <mxGeometry x="820" y="242.5" width="205" height="195" as="geometry"/>
                </mxCell>
                <mxCell id="46" value="" style="group" vertex="1" connectable="0" parent="1">
                    <mxGeometry x="830" y="315" width="135" height="87.5" as="geometry"/>
                </mxCell>
                <mxCell id="47" value="&amp;lt;&amp;lt;Database&amp;gt;&amp;gt;&lt;br&gt;Postgres" style="rounded=0;whiteSpace=wrap;html=1;" vertex="1" parent="46">
                    <mxGeometry x="15" width="120" height="87.5" as="geometry"/>
                </mxCell>
                <mxCell id="48" value="" style="rounded=0;whiteSpace=wrap;html=1;" vertex="1" parent="46">
                    <mxGeometry y="20" width="30" height="20" as="geometry"/>
                </mxCell>
                <mxCell id="49" value="" style="rounded=0;whiteSpace=wrap;html=1;" vertex="1" parent="46">
                    <mxGeometry y="51.5" width="30" height="20" as="geometry"/>
                </mxCell>
                <mxCell id="51" value="&amp;lt;&amp;lt;Device&amp;gt;&amp;gt;Database Server" style="text;html=1;strokeColor=none;fillColor=none;align=center;verticalAlign=middle;whiteSpace=wrap;rounded=0;" vertex="1" parent="1">
                    <mxGeometry x="795" y="200" width="230" height="40" as="geometry"/>
                </mxCell>
                <mxCell id="52" value="&amp;lt;&amp;lt;Execution Environment&amp;gt;&amp;gt;&lt;br&gt;Postgres" style="text;html=1;strokeColor=none;fillColor=none;align=center;verticalAlign=middle;whiteSpace=wrap;rounded=0;" vertex="1" parent="1">
                    <mxGeometry x="799" y="260" width="230" height="40" as="geometry"/>
                </mxCell>
                <mxCell id="54" value="&amp;lt;&amp;lt;Protocol&amp;gt;&amp;gt;HTTP" style="text;html=1;align=center;verticalAlign=middle;resizable=0;points=[];autosize=1;strokeColor=none;" vertex="1" parent="1">
                    <mxGeometry x="190" y="460" width="120" height="20" as="geometry"/>
                </mxCell>
                <mxCell id="55" style="edgeStyle=orthogonalEdgeStyle;rounded=0;orthogonalLoop=1;jettySize=auto;html=1;exitX=0;exitY=0;exitDx=215;exitDy=20;exitPerimeter=0;entryX=1.006;entryY=0.444;entryDx=0;entryDy=0;entryPerimeter=0;endArrow=none;endFill=0;" edge="1" parent="1" source="20" target="45">
                    <mxGeometry relative="1" as="geometry">
                        <Array as="points">
                            <mxPoint x="566" y="480"/>
                            <mxPoint x="934" y="480"/>
                        </Array>
                    </mxGeometry>
                </mxCell>
                <mxCell id="56" value="&amp;lt;&amp;lt;Protocol&amp;gt;&amp;gt;TCP/IP" style="text;html=1;align=center;verticalAlign=middle;resizable=0;points=[];autosize=1;strokeColor=none;" vertex="1" parent="1">
                    <mxGeometry x="625" y="460" width="130" height="20" as="geometry"/>
                </mxCell>
            </root>
        </mxGraphModel>
    </diagram>
</mxfile>